<svg width="25" height="25" viewBox="0 0 25 25" fill="none" xmlns="http://www.w3.org/2000/svg">
<path d="M19.4842 11.6986C20.0643 11.162 19.7742 10.1557 19.0007 10.0886L15.4232 9.78668C15.1009 9.75313 14.8108 9.55187 14.6819 9.21644L13.296 5.76147C13.0059 5.02352 11.9746 5.02352 11.6845 5.76147L10.2986 9.21644C10.1697 9.51833 9.87959 9.75313 9.55729 9.78668L6.01198 10.1221C5.23846 10.1892 4.91616 11.1955 5.52853 11.7322L8.23586 14.1473C8.4937 14.3821 8.59039 14.7175 8.52593 15.053L7.68795 18.6757C7.49457 19.4472 8.33255 20.0845 8.97715 19.6484L12.039 17.7029C12.3291 17.5352 12.6836 17.5352 12.9415 17.7029L16.0033 19.6484C16.6801 20.0845 17.4859 19.4472 17.2925 18.6757L16.4545 15.053C16.3901 14.7175 16.4868 14.3821 16.7446 14.1473L19.4842 11.6986Z" fill="#00CAF2"/>
<path d="M12.5263 3.5C12.8158 3.5 13.0526 3.26316 13.0526 2.97368V0.526316C13.0526 0.236842 12.8158 0 12.5263 0C12.2369 0 12 0.236842 12 0.526316V2.97368C12 3.26316 12.2369 3.5 12.5263 3.5Z" fill="black"/>
<path d="M5.39474 6.10722C5.50001 6.21248 5.63158 6.26511 5.76316 6.26511C5.89474 6.26511 6.02632 6.21248 6.13158 6.10722C6.34211 5.89669 6.34211 5.55458 6.13158 5.37037L4.42106 3.65985C4.21053 3.44932 3.86843 3.44932 3.68422 3.65985C3.47369 3.87037 3.47369 4.21248 3.68422 4.39669L5.39474 6.10722Z" fill="black"/>
<path d="M2.97368 11.9473H0.526316C0.236842 11.9473 0 12.1841 0 12.4736C0 12.7631 0.236842 12.9999 0.526316 12.9999H2.97368C3.26316 12.9999 3.5 12.7631 3.5 12.4736C3.5 12.1841 3.26316 11.9473 2.97368 11.9473Z" fill="black"/>
<path d="M5.36842 18.8434L3.65789 20.554C3.44737 20.7645 3.44737 21.1066 3.65789 21.2908C3.76316 21.3961 3.89474 21.4487 4.02632 21.4487C4.15789 21.4487 4.28947 21.3961 4.39474 21.2908L6.10526 19.5803C6.31579 19.3698 6.31579 19.0277 6.10526 18.8434C5.89474 18.6329 5.55263 18.6329 5.36842 18.8434Z" fill="black"/>
<path d="M12.4737 21.498C12.1842 21.498 11.9474 21.7349 11.9474 22.0244V24.4717C11.9474 24.7612 12.1842 24.998 12.4737 24.998C12.7632 24.998 13 24.7612 13 24.4717V22.0244C13 21.7349 12.7632 21.498 12.4737 21.498Z" fill="black"/>
<path d="M19.6052 18.8952C19.3947 18.6847 19.0526 18.6847 18.8684 18.8952C18.6579 19.1057 18.6579 19.4478 18.8684 19.632L20.5789 21.3426C20.6842 21.4478 20.8158 21.5005 20.9473 21.5005C21.0789 21.5005 21.2105 21.4478 21.3158 21.3426C21.5263 21.132 21.5263 20.7899 21.3158 20.6057L19.6052 18.8952Z" fill="black"/>
<path d="M24.4737 11.999H22.0263C21.7368 11.999 21.5 12.2359 21.5 12.5253C21.5 12.8148 21.7368 13.0517 22.0263 13.0517H24.4737C24.7632 13.0517 25 12.8148 25 12.5253C25 12.2359 24.7632 11.999 24.4737 11.999Z" fill="black"/>
<path d="M19.2631 6.31589C19.3947 6.31589 19.5263 6.26326 19.6316 6.158L21.3421 4.44747C21.5526 4.23694 21.5526 3.89484 21.3421 3.71063C21.1316 3.5001 20.7894 3.5001 20.6052 3.71063L18.8947 5.39484C18.6842 5.60537 18.6842 5.94747 18.8947 6.13168C19 6.26326 19.1316 6.31589 19.2631 6.31589Z" fill="black"/>
</svg>
