<svg width="26" height="23" viewBox="0 0 26 23" fill="none" xmlns="http://www.w3.org/2000/svg">
<g clip-path="url(#clip0)">
<path d="M21.8901 8.65508L23.1917 8.85044L23.7363 8.88707L25.6752 14.2692L24.6374 15.0775L24.2295 16.2546L24.2808 17.1337L11.1404 22.1691L9.91208 20.8822L7.94382 20.8626L5.91696 15.1435L7.16482 14.4622L7.36263 13.1606L7.31135 12.2815L20.3272 7.45605L21.1721 7.95178L21.8901 8.65508Z" fill="#00CAF2"/>
<path d="M11.5336 20.1934C11.6996 20.2227 11.873 20.2056 12.0318 20.147L22.0708 16.4425C22.3126 16.3521 22.5055 16.1739 22.6129 15.9394C22.7204 15.705 22.7326 15.4413 22.6423 15.1995L20.7888 10.1739C20.6691 9.85151 20.3834 9.61464 20.044 9.55603C19.8779 9.52673 19.7045 9.54382 19.5458 9.60243L9.50672 13.3069C9.26496 13.3973 9.07205 13.5756 8.9646 13.81C8.85715 14.0444 8.84494 14.3082 8.93529 14.5499L10.7888 19.5756C10.9084 19.8979 11.1917 20.1348 11.5336 20.1934ZM9.75825 13.9907L19.7973 10.2862C19.8388 10.2715 19.8803 10.2691 19.9194 10.274C20 10.2886 20.0708 10.3424 20.1026 10.4254L21.9561 15.451C22.0024 15.5731 21.939 15.7099 21.8144 15.7563L11.7778 19.4632C11.7363 19.4779 11.6948 19.4803 11.6557 19.4754C11.5751 19.4608 11.5043 19.4071 11.4725 19.324L9.61905 14.2984C9.57266 14.1739 9.63615 14.0371 9.75825 13.9907Z" fill="white"/>
<path d="M13.558 15.3331L14.8791 15.7677C14.928 15.7897 14.9646 15.8337 14.9744 15.8874L15.0745 17.2525C15.0891 17.3355 15.1551 17.3917 15.2283 17.4039C15.2601 17.4088 15.2943 17.4063 15.3236 17.3941C15.3504 17.3843 15.3773 17.3672 15.3968 17.3428L16.21 16.2342C16.2271 16.2146 16.2515 16.2 16.2759 16.1902C16.3004 16.1804 16.3272 16.178 16.3541 16.1804L17.6923 16.493C17.7241 16.4979 17.7558 16.493 17.7827 16.4832C17.8852 16.4466 17.9414 16.3196 17.8803 16.2122L17.0696 15.1084C17.0427 15.062 17.0403 15.0058 17.0647 14.957L17.7851 13.7677C17.8413 13.6505 17.7631 13.5211 17.6484 13.5016C17.6264 13.4967 17.602 13.4991 17.5775 13.504L16.2686 13.9484C16.2491 13.9533 16.2271 13.9533 16.2076 13.9484C16.1758 13.9436 16.1465 13.9289 16.1221 13.9069L15.2234 12.8422C15.1941 12.8154 15.16 12.7983 15.1258 12.7934C15.094 12.7885 15.0598 12.7909 15.0281 12.8031C14.9646 12.8251 14.9158 12.8813 14.906 12.9594L14.9158 14.3538C14.9109 14.4075 14.8791 14.4539 14.8303 14.4808L13.5482 14.9936C13.4066 15.0693 13.4164 15.2696 13.558 15.3331Z" fill="white"/>
<path d="M6.38584 15.3652C6.90354 15.1747 7.31624 14.7938 7.54579 14.2932C7.77778 13.7926 7.79732 13.2309 7.60684 12.7132C7.58242 12.6497 7.61661 12.5813 7.67766 12.5569L20.4444 7.84628C20.5079 7.82431 20.5788 7.85605 20.6007 7.9171C20.8547 8.60819 21.4652 9.11368 22.1905 9.23822C22.547 9.29927 22.9133 9.26509 23.2527 9.14054C23.3162 9.11612 23.3871 9.15275 23.409 9.21136L25.2601 14.2272C25.2821 14.2907 25.2503 14.3591 25.1893 14.3835C24.6716 14.574 24.2589 14.955 24.0293 15.4556C23.7973 15.9562 23.7778 16.5178 23.9683 17.0355C23.9927 17.099 23.9585 17.1674 23.8974 17.1918L11.1307 21.9024C11.0672 21.9269 10.9963 21.8927 10.9744 21.8316C10.7204 21.1405 10.1099 20.635 9.38462 20.5105C9.02809 20.4495 8.66179 20.4836 8.32235 20.6082C8.25886 20.6326 8.18804 20.5984 8.16606 20.5374L6.31502 15.5215C6.2906 15.458 6.32235 15.3872 6.38584 15.3652ZM24.8596 15.4922C25.011 15.3017 25.2088 15.1528 25.4432 15.0648C25.8828 14.9012 26.1099 14.4128 25.9463 13.9733L24.0952 8.95739C23.9902 8.67412 23.7387 8.46411 23.4408 8.41283C23.2943 8.38841 23.1429 8.40062 23.0037 8.45434C22.7839 8.53493 22.5446 8.55691 22.315 8.51783C21.8462 8.43725 21.4506 8.11002 21.2869 7.66313C21.1819 7.37986 20.9304 7.16985 20.6325 7.11857C20.486 7.09415 20.3346 7.10636 20.1954 7.15764L7.42857 11.8731C6.98901 12.0368 6.76191 12.5252 6.92552 12.9647C7.05006 13.2993 7.03541 13.6631 6.88645 13.9855C6.73749 14.3103 6.47131 14.5569 6.13431 14.679C5.69475 14.8426 5.46765 15.331 5.63126 15.7706L6.40049 17.8512L7.07448 19.6778L7.4823 20.784C7.5873 21.0673 7.83883 21.2773 8.13676 21.3286C8.28328 21.353 8.43468 21.3408 8.57387 21.2871C8.79365 21.2065 9.03297 21.1845 9.26008 21.2236C10.21 21.3359 10.2076 21.7584 10.4738 22.2492C10.7692 22.7938 11.243 22.6326 11.3822 22.5813L13.7021 21.7242L21.8852 18.7034L22.6276 18.4299L24.149 17.8683C24.5885 17.7046 24.8156 17.2162 24.652 16.7767C24.3541 16.0416 24.8596 15.4922 24.8596 15.4922Z" fill="#00CAF2"/>
<path d="M17.0598 5.4265C17.0598 5.4265 16.9011 6.15665 17.5311 6.64506C17.8926 6.94298 17.9463 7.48022 17.6484 7.84164L16.6203 9.09438L16.1172 9.70488L10.5861 16.4497L9.01832 18.3618C8.94994 18.4448 8.76435 18.6597 8.47131 18.6597C8.35409 18.6597 8.21978 18.6255 8.06594 18.5327C7.73627 18.3325 7.53114 18.0956 7.14775 18.0956C6.97681 18.0956 6.76924 18.142 6.50062 18.2617C6.28328 18.3447 6.08792 18.4839 5.93895 18.6646C5.84372 18.7794 5.72162 18.8673 5.58242 18.921C5.48474 18.9576 5.38462 18.9747 5.28206 18.9747C5.08914 18.9747 4.89622 18.9088 4.74237 18.7818L6.34921 17.026L8.30281 17.7586L16.8498 7.5022L16.3614 5.7928L17.0598 5.4265ZM17.7631 4.49609L16.8327 4.99426L16.1368 5.363L15.7875 5.5486L15.8974 5.92955L16.315 7.38987L8.15629 17.1823L6.52748 16.5718L6.21978 16.457L5.99756 16.7012L4.39073 18.457L4.04152 18.838L4.43957 19.1652C4.67888 19.3606 4.97925 19.468 5.28938 19.468C5.45055 19.468 5.60928 19.4387 5.76069 19.3825C5.98047 19.2995 6.17339 19.1603 6.32235 18.9796C6.41759 18.8648 6.53969 18.7745 6.67888 18.7232L6.69109 18.7183L6.7033 18.7134C6.89134 18.6304 7.04274 18.5889 7.15507 18.5889C7.27473 18.5889 7.35043 18.6353 7.55556 18.7794C7.6337 18.8331 7.71917 18.8941 7.8193 18.9552C8.03419 19.0871 8.25641 19.153 8.47619 19.153C8.71795 19.153 9.07693 19.07 9.40171 18.6768L10.9719 16.7647L16.5055 10.0199L17.0061 9.4094L18.0342 8.15665C18.5031 7.58523 18.4176 6.74029 17.8486 6.27143L17.8437 6.26654L17.8388 6.26166C17.475 5.98083 17.5385 5.57302 17.5458 5.52662L17.7631 4.49609Z" fill="white"/>
<path d="M11.0427 1.0451L12.2637 0.5567L12.7521 0.3125L17.1477 3.9755L16.6593 5.19651L16.9035 6.41751L17.3919 7.15011L8.60073 18.1391L6.89133 17.6507L5.18193 18.6275L0.542128 14.7203L1.27473 13.4993L0.786328 12.2783L0.297928 11.5457L9.08914 0.800901H10.0659L11.0427 1.0451Z" fill="#1A1A1A"/>
<path d="M7.93894 16.2372C8.09767 16.1786 8.23686 16.0761 8.34675 15.9466L15.1355 7.67315C15.2991 7.4729 15.3748 7.22138 15.3504 6.96497C15.326 6.70856 15.2015 6.47657 15.0012 6.31295L10.8596 2.91368C10.5934 2.69635 10.2271 2.6353 9.90475 2.7574C9.74602 2.816 9.60683 2.91857 9.49694 3.04799L2.71061 11.3215C2.547 11.5217 2.4713 11.7733 2.49572 12.0297C2.52014 12.2861 2.64468 12.5181 2.84492 12.6817L6.98656 16.0785C7.25274 16.2983 7.61659 16.3593 7.93894 16.2372ZM3.27471 11.783L10.0635 3.50953C10.0903 3.47534 10.1245 3.45092 10.1636 3.43871C10.2393 3.40941 10.3297 3.42162 10.398 3.47779L14.5397 6.87461C14.6422 6.95764 14.6569 7.10904 14.5739 7.20917L7.78265 15.4827C7.75579 15.5169 7.7216 15.5413 7.68253 15.5535C7.60683 15.5828 7.51647 15.5706 7.4481 15.5144L3.30646 12.1176C3.20634 12.0346 3.19169 11.8856 3.27471 11.783Z" fill="white"/>
<path d="M7.23076 11.0213L8.59095 10.7307C8.64468 10.7258 8.6984 10.7454 8.73259 10.7869L9.50915 11.9151C9.56531 11.9786 9.64834 11.9932 9.71672 11.9688C9.74602 11.9566 9.77533 11.9395 9.79486 11.9126C9.8144 11.8907 9.82661 11.8638 9.83393 11.8321L9.97557 10.4645C9.98045 10.4377 9.99266 10.4133 10.0098 10.3937C10.0269 10.3742 10.0488 10.3571 10.0732 10.3473L11.387 9.94195C11.4164 9.92974 11.4408 9.9102 11.4603 9.88822C11.5287 9.80275 11.514 9.666 11.4066 9.60495L10.149 9.06283C10.1026 9.03596 10.0708 8.98712 10.0659 8.9334L10.0855 7.5439C10.0757 7.41447 9.94382 7.34121 9.83393 7.38273C9.81196 7.39005 9.79242 7.40226 9.77288 7.41936L8.8669 8.46454C8.85225 8.47919 8.83271 8.48896 8.81318 8.49628C8.78387 8.50849 8.74968 8.51093 8.71794 8.50361L7.40414 8.03963C7.36507 8.02986 7.32844 8.03474 7.29669 8.04695C7.26495 8.05916 7.23809 8.0787 7.21611 8.10312C7.17459 8.1544 7.1575 8.22766 7.18925 8.30092L7.90231 9.49994C7.92429 9.54878 7.92185 9.60739 7.89254 9.65135L7.04517 10.7429C6.96947 10.8699 7.07447 11.0384 7.23076 11.0213Z" fill="white"/>
<path d="M1.06005 14.6747C1.40926 14.2474 1.57287 13.7101 1.51915 13.1631C1.46542 12.6137 1.19924 12.118 0.774335 11.7687C0.723053 11.7272 0.715727 11.6491 0.757241 11.5978L9.38728 1.07766C9.42879 1.02638 9.50694 1.01905 9.55822 1.06056C10.1272 1.52699 10.9086 1.65641 11.5973 1.39756C11.9343 1.27058 12.2347 1.05568 12.4642 0.77485C12.5057 0.723567 12.5839 0.716241 12.6351 0.757756L16.767 4.1497C16.8183 4.19121 16.8256 4.26936 16.7841 4.32064C16.4349 4.74799 16.2713 5.28523 16.325 5.83224C16.3787 6.38169 16.6449 6.87741 17.0698 7.22662C17.1211 7.26813 17.1284 7.34628 17.0869 7.39756L8.45932 17.9153C8.4178 17.9665 8.33966 17.9739 8.28838 17.9324C7.71939 17.4659 6.93795 17.3365 6.2493 17.5954C5.91231 17.7223 5.61194 17.9372 5.38239 18.2181C5.34088 18.2694 5.26274 18.2767 5.21145 18.2352L1.07714 14.8457C1.02342 14.8042 1.01609 14.726 1.06005 14.6747ZM17.0625 5.44396C17.0967 5.2022 17.1919 4.97509 17.3506 4.77973C17.6486 4.41587 17.5948 3.88108 17.2334 3.58315L13.0991 0.193653C12.8647 0.000734782 12.5423 -0.0505473 12.2591 0.0544588C12.1199 0.105741 11.9953 0.196095 11.9025 0.310869C11.7536 0.491577 11.5607 0.630771 11.3409 0.713799C10.894 0.882298 10.3885 0.79927 10.0198 0.496461C9.78532 0.303543 9.46298 0.252261 9.17971 0.357267C9.04051 0.410991 8.91597 0.498903 8.82318 0.613677L0.193139 11.1338C-0.104786 11.4977 -0.0510617 12.0325 0.310355 12.3304C0.586301 12.5575 0.757241 12.8774 0.793871 13.2315C0.828059 13.588 0.723053 13.9348 0.495947 14.2107C0.198023 14.5746 0.251747 15.1094 0.613163 15.4073L2.32745 16.8139L3.83416 18.0496L4.74503 18.7968C4.97946 18.9897 5.30181 19.041 5.58508 18.936C5.72427 18.8847 5.84882 18.7944 5.94161 18.6796C6.09057 18.4989 6.28349 18.3597 6.50327 18.2767C7.37995 17.8933 7.58996 18.2596 8.0686 18.5477C8.59851 18.8701 8.92574 18.4916 9.02098 18.3744L10.5887 16.4623L16.1223 9.71746L16.6254 9.10696L17.6535 7.85421C17.9514 7.49036 17.8977 6.95556 17.5362 6.65763C16.9038 6.17412 17.0625 5.44396 17.0625 5.44396Z" fill="#1A1A1A"/>
</g>
<defs>
<clipPath id="clip0">
<path d="M0 0H26V22.6496H0V0Z" fill="white"/>
</clipPath>
</defs>
</svg>
