<svg width="36" height="33" viewBox="0 0 36 33" fill="none" xmlns="http://www.w3.org/2000/svg">
<path d="M13.1088 29.914C13.1607 29.9341 13.2211 29.9576 13.2729 29.9777C13.9609 30.2907 14.4903 30.8478 14.8473 31.3291C14.8973 31.3966 14.9831 31.4277 15.0642 31.4058L32.0007 26.8278C32.0813 26.8061 32.1396 26.7366 32.1491 26.6537C32.2172 26.0609 32.3878 25.3131 32.8313 24.6967C33.1908 24.1855 33.6681 23.8244 34.1014 23.5796C34.1832 23.5334 34.2253 23.4384 34.2008 23.3477L32.4704 16.9454C32.446 16.8551 32.3623 16.7942 32.2688 16.795C31.7695 16.7993 31.1727 16.7249 30.6012 16.4673C29.9132 16.1543 29.3839 15.5972 29.0269 15.1159C28.9768 15.0485 28.8909 15.0173 28.8098 15.0393L11.8784 19.629C11.7979 19.6508 11.7397 19.7202 11.7302 19.8031C11.6621 20.3958 11.4915 21.1437 11.048 21.7602C10.6884 22.2714 10.2112 22.6324 9.77783 22.8772C9.69604 22.9234 9.65395 23.0185 9.67846 23.1092L11.4087 29.5109C11.4332 29.6015 11.5172 29.6624 11.611 29.6613C12.0597 29.6559 12.5932 29.7137 13.1088 29.914Z" fill="white" stroke="#00D5DB" stroke-width="1.8"/>
<path d="M24.9193 22.2569C25.0707 22.2793 25.1223 22.4718 25.0024 22.567L23.5284 23.7374C23.4785 23.777 23.454 23.8407 23.4646 23.9035L23.7773 25.7595C23.8028 25.9105 23.6357 26.019 23.508 25.9344L21.9395 24.8942C21.8863 24.859 21.8183 24.8554 21.7618 24.8849L20.0933 25.7558C19.9575 25.8267 19.8026 25.7013 19.8437 25.5538L20.3483 23.7405C20.3653 23.6791 20.3477 23.6133 20.3022 23.5687L18.9583 22.2509C18.8489 22.1437 18.9203 21.9577 19.0733 21.9511L20.9538 21.8707C21.0174 21.868 21.0746 21.8308 21.103 21.7738L21.9409 20.0885C22.0091 19.9513 22.2081 19.9617 22.2616 20.1052L22.9192 21.8687C22.9415 21.9285 22.9944 21.9714 23.0575 21.9807L24.9193 22.2569Z" fill="white"/>
<path fill-rule="evenodd" clip-rule="evenodd" d="M25.0157 21.6077C25.7352 21.7144 25.9803 22.6286 25.4106 23.0809L24.1591 24.0746L24.4246 25.6504C24.5455 26.3677 23.7517 26.8833 23.1455 26.4813L21.8137 25.5981L20.3971 26.3375C19.7522 26.6741 19.0166 26.0786 19.2116 25.3778L19.64 23.8383L18.499 22.7195C17.9796 22.2102 18.3187 21.3265 19.0454 21.2954L20.642 21.2271L21.3534 19.7962C21.6773 19.1449 22.6225 19.1943 22.8766 19.8759L23.435 21.3732L25.0157 21.6077ZM23.7253 22.7431L22.9613 22.6298C22.6619 22.5854 22.4102 22.3817 22.3044 22.098L22.0346 21.3743L21.6907 22.0659C21.556 22.337 21.2844 22.5134 20.9819 22.5263L20.2103 22.5593L20.7618 23.1C20.978 23.312 21.0618 23.6247 20.9806 23.9164L20.7736 24.6605L21.4583 24.3031C21.7266 24.163 22.05 24.1799 22.3023 24.3472L22.946 24.7741L22.8177 24.0125C22.7674 23.7139 22.8834 23.4116 23.1205 23.2234L23.7253 22.7431Z" fill="#081F28"/>
<path d="M10.0104 25.3811C10.0647 25.369 10.128 25.3549 10.1822 25.3428C10.9353 25.219 11.6924 25.3919 12.2587 25.5958C12.3278 25.6207 12.4055 25.6016 12.4537 25.5462L24.0035 12.2937C24.0515 12.2386 24.0601 12.1596 24.0264 12.0948C23.7507 11.5629 23.4709 10.84 23.4967 10.0738C23.5113 9.44053 23.7121 8.86814 23.9398 8.42097C23.9771 8.34772 23.9614 8.25809 23.8994 8.20408L18.8695 3.82029C18.8078 3.76653 18.7174 3.76295 18.65 3.80933C18.2353 4.09469 17.6919 4.37079 17.0654 4.47604C16.3123 4.59987 15.5552 4.42693 14.989 4.22307C14.9198 4.19816 14.8421 4.2173 14.7939 4.27277L3.25487 17.5322C3.20694 17.5873 3.19844 17.6662 3.23203 17.731C3.50778 18.2629 3.78763 18.9858 3.76181 19.7521C3.74723 20.3853 3.5464 20.9577 3.31871 21.4049C3.28141 21.4781 3.29715 21.5678 3.35911 21.6218L8.3886 26.0052C8.45047 26.0591 8.54129 26.0625 8.60873 26.0158C8.98088 25.7578 9.4625 25.5034 10.0104 25.3811Z" fill="white"/>
<path d="M24.7833 10.117L24.7833 10.1171L24.7834 10.1117L24.7836 10.1033C24.7836 10.1033 24.7836 10.1033 24.7836 10.1033C24.7925 9.71942 24.917 9.33873 25.0869 9.00507C25.3811 8.42719 25.27 7.69085 24.7451 7.23339L19.7152 2.8496C19.1928 2.39429 18.452 2.38243 17.9199 2.7486C17.6102 2.96168 17.2422 3.1402 16.854 3.20586C16.408 3.27861 15.8912 3.17949 15.4249 3.01159C14.8711 2.81224 14.2298 2.95928 13.8224 3.42747L2.28339 16.6869C1.87929 17.1513 1.81855 17.8022 2.08874 18.3234C2.3221 18.7736 2.48974 19.2636 2.47474 19.7086L2.47471 19.7086L2.47459 19.714L2.4744 19.7224C2.46556 20.1062 2.34102 20.4869 2.17112 20.8206C1.87688 21.3985 1.98805 22.1348 2.51293 22.5923L7.54242 26.9757C8.06675 27.4327 8.81012 27.4425 9.342 27.0738C9.62077 26.8805 9.94973 26.7137 10.2906 26.6376L10.4219 26.6083C10.8615 26.5443 11.3664 26.6429 11.8223 26.8071C12.3757 27.0063 13.0166 26.8596 13.4241 26.392L24.9739 13.1395C25.3786 12.6751 25.4396 12.0237 25.1692 11.5022C24.9359 11.052 24.7683 10.5621 24.7833 10.117ZM17.2784 5.74566L17.2784 5.74565C17.7789 5.66158 18.23 5.50096 18.6212 5.31186L22.453 8.65151C22.319 9.06285 22.2219 9.53026 22.2095 10.0372C22.186 10.7689 22.3563 11.4393 22.5654 11.9839L11.9507 24.1633C11.3778 24.0295 10.6905 23.9543 9.9731 24.0723C9.97309 24.0723 9.97308 24.0723 9.97307 24.0723L9.95111 24.0759L9.93714 24.0782L9.92333 24.0813L9.72978 24.1244C9.32749 24.2142 8.95987 24.3531 8.63437 24.5117L4.80496 21.1742C4.93902 20.7628 5.03612 20.2954 5.04855 19.7883C5.07199 19.0564 4.90159 18.3858 4.69241 17.8412L15.297 5.65547C15.8698 5.78922 16.5568 5.86432 17.274 5.74639L17.2757 5.74611L17.2784 5.74566Z" fill="#00D5DB" stroke="white"/>
<path d="M15.5129 12.4723C15.6711 12.3974 15.8424 12.5473 15.7891 12.714L15.2374 14.4376C15.2152 14.507 15.2324 14.583 15.2825 14.6359L16.5251 15.9516C16.6453 16.0788 16.5556 16.2882 16.3806 16.2889L14.5709 16.2969C14.498 16.2972 14.4311 16.3371 14.3962 16.401L13.5289 17.9894C13.445 18.143 13.2183 18.1224 13.1634 17.9562L12.5967 16.2375C12.5739 16.1683 12.5152 16.117 12.4436 16.1036L10.665 15.7696C10.493 15.7373 10.4425 15.5152 10.5837 15.4117L12.0431 14.3416C12.1018 14.2985 12.1325 14.2269 12.1232 14.1546L11.8912 12.3598C11.8687 12.1863 12.0643 12.0696 12.2064 12.1719L13.6751 13.2292C13.7342 13.2718 13.8118 13.2788 13.8776 13.2476L15.5129 12.4723Z" fill="white" stroke="#081F28" stroke-width="1.5"/>
</svg>
