<svg width="21" height="21" viewBox="0 0 21 21" fill="none" xmlns="http://www.w3.org/2000/svg">
<circle cx="10.5" cy="8.58949" r="7.63636" fill="#1A1A1A"/>
<path d="M10.5 0C4.70102 0 0 4.70106 0 10.5C0 16.2989 4.70102 21 10.5 21C16.299 21 21 16.2989 21 10.5C21 4.70106 16.299 0 10.5 0ZM9.54545 4.73455C10.0094 4.73455 10.3855 5.11061 10.3855 5.57455V10.9689L14.3361 13.2526C14.7378 13.4846 14.8699 13.9928 14.638 14.3945C14.406 14.7963 13.8978 14.9284 13.4961 14.6964L9.21731 12.2289C9.18497 12.215 9.15569 12.194 9.12545 12.1764C8.87476 12.0311 8.70545 11.7652 8.70545 11.4545V5.57455C8.70545 5.11061 9.08152 4.73455 9.54545 4.73455Z" fill="#00CAF2"/>
<circle cx="10.5" cy="10.4981" r="8.09091" stroke="white"/>
</svg>
