<svg width="35" height="35" viewBox="0 0 35 35" fill="none" xmlns="http://www.w3.org/2000/svg">
<path d="M17.5006 5.57114C16.9051 5.57114 16.4248 5.09087 16.4248 4.49534V1.07582C16.4248 0.48028 16.9051 0 17.5006 0C18.0961 0 18.5764 0.48028 18.5764 1.07582V4.49534C18.5764 5.09087 18.0961 5.57114 17.5006 5.57114Z" fill="#00D5DB"/>
<path d="M17.5006 34.8099C16.9051 34.8099 16.4248 34.3296 16.4248 33.7341V30.3146C16.4248 29.719 16.9051 29.2388 17.5006 29.2388C18.0961 29.2388 18.5764 29.719 18.5764 30.3146V33.7341C18.5764 34.3296 18.0961 34.8099 17.5006 34.8099Z" fill="#00D5DB"/>
<path d="M33.9162 19.009H30.4967C29.9012 19.009 29.4209 18.5288 29.4209 17.9332C29.4209 17.3377 29.9012 16.8574 30.4967 16.8574H33.9162C34.5118 16.8574 34.992 17.3377 34.992 17.9332C34.992 18.5288 34.5118 19.009 33.9162 19.009Z" fill="#00D5DB"/>
<path d="M4.49533 19.009H1.0758C0.480269 19.009 0 18.5288 0 17.9332C0 17.3377 0.480269 16.8574 1.0758 16.8574H4.49533C5.09086 16.8574 5.57113 17.3377 5.57113 17.9332C5.57113 18.5288 5.09086 19.009 4.49533 19.009Z" fill="#00D5DB"/>
<path d="M27.9127 29.9883C27.6341 29.9883 27.3556 29.8827 27.1539 29.6714L25.3961 27.9136C24.9734 27.4909 24.9734 26.809 25.3961 26.3863C25.8187 25.9637 26.5007 25.9637 26.9233 26.3863L28.6811 28.1441C29.1038 28.5667 29.1038 29.2487 28.6811 29.6714C28.4602 29.8827 28.1816 29.9883 27.9127 29.9883Z" fill="#00D5DB"/>
<path d="M8.84629 10.9214C8.56773 10.9214 8.28918 10.8158 8.08746 10.6045L6.32967 8.84668C5.90704 8.42404 5.90704 7.74206 6.32967 7.31942C6.75231 6.89678 7.4343 6.89678 7.85693 7.31942L9.61472 9.0772C10.0374 9.49983 10.0374 10.1818 9.61472 10.6045C9.40341 10.8158 9.12485 10.9214 8.84629 10.9214Z" fill="#00D5DB"/>
<path d="M26.0688 11.1519C25.7903 11.1519 25.5117 11.0463 25.3004 10.8349C24.8777 10.4123 24.8777 9.73032 25.3004 9.30768L27.0582 7.54989C27.4808 7.12725 28.1628 7.12725 28.5854 7.54989C29.0081 7.97253 29.0081 8.65451 28.5854 9.07715L26.8276 10.8349C26.6259 11.0463 26.3474 11.1519 26.0688 11.1519Z" fill="#00D5DB"/>
<path d="M7.16549 30.0171C6.88693 30.0171 6.60838 29.9115 6.39706 29.7002C5.97442 29.2775 5.97442 28.5956 6.39706 28.1729L8.15485 26.4151C8.57748 25.9925 9.25947 25.9925 9.68211 26.4151C10.1047 26.8378 10.1047 27.5197 9.68211 27.9424L7.92432 29.7002C7.713 29.9115 7.43444 30.0171 7.16549 30.0171Z" fill="#00D5DB"/>
<path fill-rule="evenodd" clip-rule="evenodd" d="M16.5025 8.9142C16.8794 8.04488 18.1123 8.04488 18.4892 8.9142L20.562 13.6941L25.7485 14.1884C26.6918 14.2782 27.0727 15.4507 26.3624 16.0779L22.4569 19.5263L23.5896 24.6117C23.7956 25.5365 22.7983 26.2612 21.9823 25.7794L17.4958 23.1307L13.0094 25.7794C12.1934 26.2612 11.1961 25.5365 11.4021 24.6117L12.5348 19.5263L8.62927 16.0779C7.91898 15.4507 8.29994 14.2782 9.24321 14.1884L14.4297 13.6941L16.5025 8.9142ZM17.4958 11.1593L15.9158 14.8031C15.7589 15.1649 15.4177 15.4128 15.0251 15.4502L11.0715 15.8269L14.0486 18.4556C14.3442 18.7166 14.4746 19.1177 14.3888 19.5026L13.5254 23.3792L16.9454 21.3601C17.285 21.1596 17.7067 21.1596 18.0463 21.3601L21.4663 23.3792L20.6029 19.5026C20.5171 19.1177 20.6475 18.7166 20.9431 18.4556L23.9202 15.8269L19.9666 15.4502C19.574 15.4128 19.2328 15.1649 19.0759 14.8031L17.4958 11.1593Z" fill="#081F28"/>
</svg>
