<svg width="25" height="25" viewBox="0 0 25 25" fill="none" xmlns="http://www.w3.org/2000/svg">
<path fill-rule="evenodd" clip-rule="evenodd" d="M12.5 23.125C18.368 23.125 23.125 18.368 23.125 12.5C23.125 6.63197 18.368 1.875 12.5 1.875C6.63197 1.875 1.875 6.63197 1.875 12.5C1.875 18.368 6.63197 23.125 12.5 23.125ZM12.5 25C19.4036 25 25 19.4036 25 12.5C25 5.59644 19.4036 0 12.5 0C5.59644 0 0 5.59644 0 12.5C0 19.4036 5.59644 25 12.5 25Z" fill="#00D5DB"/>
<path fill-rule="evenodd" clip-rule="evenodd" d="M11.667 6.5625C12.1848 6.5625 12.6045 6.98223 12.6045 7.5V12.7891L16.965 15.9038C17.3863 16.2047 17.4839 16.7903 17.183 17.2116C16.882 17.6329 16.2965 17.7305 15.8752 17.4295L11.2617 14.1342C10.9277 13.8956 10.7295 13.5105 10.7295 13.1001V7.5C10.7295 6.98223 11.1492 6.5625 11.667 6.5625Z" fill="#081F28"/>
</svg>
