<svg width="20" height="16" viewBox="0 0 20 16" fill="none" xmlns="http://www.w3.org/2000/svg">
<path d="M1.5 1.5H3.60294L4.42021 3.47868L5.58162 6.375L7.05846 10.0217L17.3103 9.30478L19.2077 3.46912H9" stroke="#090F15" stroke-width="1.5" stroke-miterlimit="10" stroke-linecap="round" stroke-linejoin="round"/>
<path d="M15.0342 15.166C15.8108 15.166 16.4404 14.5364 16.4404 13.7598C16.4404 12.9831 15.8108 12.3535 15.0342 12.3535C14.2575 12.3535 13.6279 12.9831 13.6279 13.7598C13.6279 14.5364 14.2575 15.166 15.0342 15.166Z" fill="#090F15"/>
<path d="M8.68237 15.166C9.45902 15.166 10.0886 14.5364 10.0886 13.7598C10.0886 12.9831 9.45902 12.3535 8.68237 12.3535C7.90572 12.3535 7.27612 12.9831 7.27612 13.7598C7.27612 14.5364 7.90572 15.166 8.68237 15.166Z" fill="#090F15"/>
</svg>
