<svg width="14" height="11" viewBox="0 0 14 11" fill="none" xmlns="http://www.w3.org/2000/svg">
<path d="M12.8021 0.144775C12.6083 -0.0489086 12.2957 -0.0481614 12.1027 0.146447L4.63031 7.68289L1.89729 4.92645C1.80432 4.83268 1.67822 4.78 1.54674 4.78C1.41526 4.78 1.28917 4.83268 1.19619 4.92645L0.145202 5.98645C0.052158 6.08029 -7.86871e-05 6.20759 8.897e-08 6.3403C7.93117e-05 6.47301 0.0524675 6.60025 0.145623 6.69398L4.28019 10.854C4.47386 11.0488 4.78742 11.0486 4.98086 10.8536L13.8548 1.90355C13.9481 1.80949 14.0003 1.68183 14 1.54882C13.9997 1.4158 13.9468 1.28839 13.8531 1.19477L12.8021 0.144775Z" fill="white"/>
</svg>
