<?xml version="1.0" encoding="UTF-8"?>
<svg width="12px" height="24px" viewBox="0 0 12 24" version="1.1" xmlns="http://www.w3.org/2000/svg" xmlns:xlink="http://www.w3.org/1999/xlink">
    <!-- Generator: Sketch 52.2 (67145) - http://www.bohemiancoding.com/sketch -->
    <title>facebook-f</title>
    <desc>Created with Sketch.</desc>
    <g id="Page-1" stroke="none" stroke-width="1" fill="none" fill-rule="evenodd">
        <g id="facebook-f" fill="#FFFFFF">
            <path d="M12,0.173076923 L12,3.98076923 L9.81944444,3.98076923 C9.02314815,3.98076923 8.48611111,4.15384615 8.20833333,4.5 C7.93055556,4.84615385 7.79166667,5.36538462 7.79166667,6.05769231 L7.79166667,8.78365385 L11.8611111,8.78365385 L11.3194444,13.0528846 L7.79166667,13.0528846 L7.79166667,24 L3.54166667,24 L3.54166667,13.0528846 L0,13.0528846 L0,8.78365385 L3.54166667,8.78365385 L3.54166667,5.63942308 C3.54166667,3.85096154 4.02314815,2.46394231 4.98611111,1.47836538 C5.94907407,0.492788462 7.23148148,0 8.83333333,0 C10.1944444,0 11.25,0.0576923077 12,0.173076923 Z" id="Path"></path>
        </g>
    </g>
</svg>