<?xml version="1.0" encoding="UTF-8"?>
<svg width="11px" height="22px" viewBox="0 0 11 22" version="1.1" xmlns="http://www.w3.org/2000/svg" xmlns:xlink="http://www.w3.org/1999/xlink">
    <!-- Generator: Sketch 52.2 (67145) - http://www.bohemiancoding.com/sketch -->
    <title>Path</title>
    <desc>Created with Sketch.</desc>
    <g id="Page-1" stroke="none" stroke-width="1" fill="none" fill-rule="evenodd">
        <g id="facebook" fill="#00CEF6">
            <path d="M0,7.0125 L2.2,7.0125 L2.2,5.9125 L2.2,4.95 L2.2,4.8125 C2.2,3.85 2.2,2.475 2.8875,1.5125 C3.575,0.6875 4.5375,0 6.1875,0 C8.9375,0 10.0375,0.4125 10.0375,0.4125 L9.625,3.575 C9.625,3.575 8.6625,3.3 7.8375,3.3 C7.0125,3.3 6.1875,3.575 6.1875,4.4 L6.1875,4.675 L6.1875,5.775 L6.1875,6.7375 L9.625,6.7375 L9.4875,10.0375 L6.1875,10.0375 L6.1875,21.0375 L2.0625,21.0375 L2.0625,10.0375 L0,10.0375 L0,7.0125" id="Path"></path>
        </g>
    </g>
</svg>