<svg xmlns="http://www.w3.org/2000/svg" width="26" height="26" viewBox="0 0 26 26">
    <g fill="none" fill-rule="evenodd" stroke="#00CAF2" stroke-linecap="round" stroke-linejoin="round" stroke-width="1.527">
        <path d="M14.57 21.323c-.325-.457-1.384-.963-1.388-1.578-.003-.648 1.238-1.017 1.187-1.835-.053-.84-1.07-1-1.56-1.51-1.536-1.604 1.45-2.433.467-4.17-.72-1.265-3.184-1.966-3.96-.647-.5.846.42 2.78-1.014 3.06-.88.172-1.16-.82-1.605-1.356-1.337-1.617-2.923-.79-4.155.38a4.367 4.367 0 0 1-.84.618 11.476 11.476 0 0 0 3.322 7.033 11.5 11.5 0 0 0 9.506 3.292c.11-.366.218-.73.33-1.082.3-.942.303-1.376-.29-2.205z"></path>
        <path d="M5.025 5.022a11.5 11.5 0 0 0-3.32 9.263c.305-.176.59-.38.84-.618 1.23-1.17 2.816-1.997 4.153-.38.445.537.726 1.528 1.605 1.356 1.435-.28.514-2.215 1.013-3.06.777-1.32 3.242-.62 3.96.648.984 1.737-2.002 2.566-.466 4.17.49.51 1.507.67 1.56 1.51.05.82-1.19 1.187-1.188 1.835.004.615 1.063 1.12 1.39 1.578.59.83.59 1.263.29 2.206-.114.35-.223.714-.33 1.08a11.475 11.475 0 0 0 6.79-3.292 11.5 11.5 0 0 0 3.31-9.353c-.5-.326-.974-.722-1.486-1.102-2.226-1.656-1.08.46-2.802 1.383-.52.28-2.225.393-2.78.124-1.056-.51-.93-2.194-1.438-3.013-1.406-2.274-3.6-.56-5.35-1.66-1.712-1.077.024-1.976 1.18-2.424 1.512-.588 3.41-.21 3.706-2.292a4.035 4.035 0 0 0-.016-1.062 11.512 11.512 0 0 0-10.62 3.104z"></path>
        <path d="M15.66 2.98c-.293 2.08-2.192 1.706-3.705 2.293-1.156.448-2.89 1.347-1.178 2.424 1.75 1.1 3.942-.614 5.35 1.66.506.82.38 2.5 1.436 3.013.556.27 2.26.155 2.782-.124 1.72-.92.575-3.04 2.8-1.383.513.38.988.775 1.486 1.102a11.47 11.47 0 0 0-3.31-6.943 11.466 11.466 0 0 0-5.674-3.104c.042.345.067.7.015 1.063z"></path>
    </g>
</svg>