<svg width="13" height="13" viewBox="0 0 13 13" fill="none" xmlns="http://www.w3.org/2000/svg">
<path fill-rule="evenodd" clip-rule="evenodd" d="M6.20084 3.77263C4.82762 3.77263 3.71497 4.85642 3.71497 6.19368C3.71497 7.53095 4.82762 8.61474 6.20084 8.61474C7.57405 8.61474 8.6867 7.53095 8.6867 6.19368C8.6867 4.85642 7.57405 3.77263 6.20084 3.77263ZM10.9799 5.26147H9.88984C9.99289 5.6 10.049 5.95789 10.049 6.32926C10.049 8.39832 8.32559 10.0758 6.20084 10.0758C4.07608 10.0758 2.35349 8.39832 2.35349 6.32926C2.35349 5.95789 2.40878 5.6 2.51184 5.26147H1.37489V10.5171C1.37489 10.7891 1.59692 11.0114 1.86754 11.0114H10.4872C10.7578 11.0114 10.9799 10.7891 10.9799 10.5171V5.26147ZM9.01681 1.38189C8.71016 1.38189 8.45965 1.63453 8.45965 1.94274V3.28337C8.45965 3.59158 8.71016 3.84337 9.01681 3.84337H10.416C10.7226 3.84337 10.9732 3.59158 10.9732 3.28337V1.94274C10.9732 1.63453 10.7226 1.38189 10.416 1.38189H9.01681ZM1.58854 0H10.7897C11.6635 0 12.3782 0.718316 12.3782 1.59663V10.8446C12.3782 11.7229 11.6635 12.4421 10.7897 12.4421H1.58854C0.714676 12.4421 0 11.7229 0 10.8446V1.59663C0 0.718316 0.714676 0 1.58854 0Z" fill="#1A1A1A"/>
</svg>
