<svg width="17" height="17" viewBox="0 0 17 17" fill="none" xmlns="http://www.w3.org/2000/svg">
<path d="M8.49998 1.53156C10.7696 1.53156 11.0384 1.5402 11.9347 1.58109C12.7634 1.61892 13.2135 1.75739 13.5131 1.87376C13.9098 2.02796 14.193 2.21218 14.4904 2.50961C14.7878 2.80703 14.972 3.09022 15.1262 3.48694C15.2426 3.78649 15.3811 4.23656 15.4189 5.06527C15.4598 5.9616 15.4684 6.23041 15.4684 8.50002C15.4684 10.7696 15.4598 11.0384 15.4189 11.9347C15.3811 12.7635 15.2426 13.2135 15.1262 13.5131C14.972 13.9098 14.7878 14.193 14.4904 14.4904C14.193 14.7879 13.9098 14.9721 13.5131 15.1262C13.2135 15.2426 12.7634 15.3811 11.9347 15.4189C11.0385 15.4598 10.7697 15.4685 8.49998 15.4685C6.23024 15.4685 5.96143 15.4598 5.06527 15.4189C4.23653 15.3811 3.78646 15.2426 3.48694 15.1262C3.09019 14.9721 2.807 14.7879 2.50957 14.4904C2.21215 14.193 2.02792 13.9098 1.87376 13.5131C1.75736 13.2135 1.61888 12.7635 1.58106 11.9348C1.54017 11.0384 1.53153 10.7696 1.53153 8.50002C1.53153 6.23041 1.54017 5.9616 1.58106 5.0653C1.61888 4.23656 1.75736 3.78649 1.87376 3.48694C2.02792 3.09022 2.21215 2.80703 2.50957 2.50961C2.807 2.21218 3.09019 2.02796 3.48694 1.87376C3.78646 1.75739 4.23653 1.61892 5.06524 1.58109C5.96156 1.5402 6.23037 1.53156 8.49998 1.53156ZM8.49998 0C6.1915 0 5.90208 0.00978484 4.99546 0.0511511C4.0907 0.0924498 3.47284 0.236118 2.93214 0.446256C2.37319 0.663479 1.89917 0.954122 1.42663 1.42666C0.954089 1.8992 0.663445 2.37323 0.446222 2.93218C0.236084 3.47287 0.0924161 4.09073 0.0511173 4.99549C0.00975109 5.90208 0 6.19154 0 8.50002C0 10.8085 0.00975109 11.098 0.0511173 12.0045C0.0924161 12.9093 0.236084 13.5272 0.446222 14.0679C0.663445 14.6268 0.954089 15.1008 1.42663 15.5734C1.89917 16.0459 2.37319 16.3366 2.93214 16.5538C3.47284 16.7639 4.0907 16.9076 4.99546 16.9489C5.90208 16.9902 6.1915 17 8.49998 17C10.8085 17 11.0979 16.9902 12.0045 16.9489C12.9093 16.9076 13.5271 16.7639 14.0678 16.5538C14.6268 16.3366 15.1008 16.0459 15.5733 15.5734C16.0459 15.1008 16.3365 14.6268 16.5537 14.0679C16.7639 13.5272 16.9076 12.9093 16.9488 12.0045C16.9902 11.098 17 10.8085 17 8.50002C17 6.19154 16.9902 5.90208 16.9488 4.99549C16.9076 4.09073 16.7639 3.47287 16.5537 2.93218C16.3365 2.37323 16.0459 1.8992 15.5733 1.42666C15.1008 0.954122 14.6268 0.663479 14.0678 0.446256C13.5271 0.236118 12.9093 0.0924498 12.0045 0.0511511C11.0979 0.00978484 10.8085 0 8.49998 0ZM8.49998 4.13514C6.08934 4.13514 4.1351 6.08937 4.1351 8.50002C4.1351 10.9107 6.08934 12.8649 8.49998 12.8649C10.9106 12.8649 12.8649 10.9107 12.8649 8.50002C12.8649 6.08937 10.9106 4.13514 8.49998 4.13514ZM8.49998 11.3334C6.93519 11.3334 5.66663 10.0648 5.66663 8.50002C5.66663 6.93522 6.93519 5.66667 8.49998 5.66667C10.0648 5.66667 11.3333 6.93522 11.3333 8.50002C11.3333 10.0648 10.0648 11.3334 8.49998 11.3334ZM14.0573 3.96269C14.0573 4.52602 13.6006 4.98271 13.0373 4.98271C12.474 4.98271 12.0173 4.52602 12.0173 3.96269C12.0173 3.39935 12.474 2.9427 13.0373 2.9427C13.6006 2.9427 14.0573 3.39935 14.0573 3.96269Z" fill="#081F28"/>
</svg>
