<svg width="162" height="40" viewBox="0 0 162 40" fill="none" xmlns="http://www.w3.org/2000/svg">
<path d="M19.6502 35.6739C17.2307 35.6739 14.911 35.1251 12.8657 34.1523C12.6412 34.0526 12.4167 34.0526 12.1922 34.1523C11.3691 34.6013 10.5959 35.1002 9.89749 35.6739C9.52335 35.9732 9.57324 36.5219 9.97232 36.7713C12.8408 38.3926 16.1332 39.3155 19.6502 39.3155C23.1671 39.3155 26.4596 38.3926 29.328 36.7713C29.7271 36.5469 29.777 35.9732 29.4028 35.6739C28.6795 35.1002 27.9063 34.6013 27.1081 34.1523C26.9085 34.0526 26.6591 34.0526 26.4346 34.1523C24.3893 35.1251 22.0696 35.6739 19.6502 35.6739Z" fill="white"/>
<path d="M34.0924 30.311C30.0267 27.0186 24.8885 25.1978 19.6505 25.1978C14.637 25.1978 9.87286 26.7941 5.882 29.8122C5.882 29.8122 5.03394 30.4856 4.38542 31.0593C4.136 31.2838 4.08611 31.658 4.3106 31.9323C4.80945 32.531 5.38314 33.1795 5.93188 33.7282C6.15637 33.9527 6.53051 33.9777 6.77994 33.7781C7.35363 33.3042 8.10192 32.7555 8.10192 32.7555C11.4692 30.2362 15.4601 28.8893 19.6754 28.8893C24.0903 28.8893 28.3805 30.4108 31.7977 33.1795C31.7977 33.1795 32.1718 33.4788 32.546 33.7781C32.7954 33.9777 33.1695 33.9777 33.394 33.7532C33.9428 33.2044 34.5164 32.5809 35.0153 31.9573C35.2398 31.6829 35.1899 31.3088 34.9405 31.0843C34.5164 30.6852 34.0924 30.311 34.0924 30.311Z" fill="white"/>
<path d="M16.4327 0.254912C8.17663 1.57689 1.61665 8.11192 0.26973 16.368C-0.378786 20.3339 0.169958 24.1253 1.61665 27.4427C1.81619 27.8916 2.36493 28.0164 2.71413 27.717C3.43748 27.1184 4.18576 26.5447 4.95899 26.0209V25.996C9.324 23.0777 14.3625 21.5561 19.6504 21.5561C24.9383 21.5561 30.0017 23.1026 34.3417 25.996V26.0209C35.1149 26.5447 35.8882 27.1184 36.5866 27.717C36.9358 28.0164 37.5095 27.8916 37.6841 27.4676C38.7317 25.0731 39.3054 22.4291 39.3054 19.6605C39.3054 7.76272 28.7046 -1.69063 16.4327 0.254912ZM19.6504 17.9145C14.0133 17.9145 8.60066 19.436 3.88645 22.3543C3.73679 21.4813 3.66196 20.5584 3.66196 19.6355C3.66196 10.8058 10.8455 3.6222 19.6753 3.6222C28.5051 3.6222 35.6886 10.8058 35.6886 19.6355C35.6886 20.5584 35.6138 21.4564 35.4641 22.3543C30.7001 19.4609 25.2875 17.9145 19.6504 17.9145Z" fill="white"/>
<path d="M92.1838 9.8829C89.4152 9.8829 87.1703 10.9554 85.7985 12.3273C84.5513 10.7559 82.6806 9.8829 80.5605 9.8829C78.3156 9.8829 76.5945 10.8307 75.4222 12.0031V11.0053C75.4222 10.6561 75.1478 10.3818 74.7986 10.3818H72.0799C71.7307 10.3818 71.4563 10.6561 71.4563 11.0053V28.4404C71.4563 28.7896 71.7307 29.064 72.0799 29.064H74.7986C75.1478 29.064 75.4222 28.7896 75.4222 28.4404V15.7694C76.3202 14.4724 77.8167 13.4747 79.3383 13.4747C81.3836 13.4747 83.5536 14.647 83.5536 18.6379V28.4404C83.5536 28.7896 83.828 29.064 84.1772 29.064H86.8959C87.2451 29.064 87.5195 28.7896 87.5195 28.4404V17.8896C87.5195 17.1912 87.4447 16.5177 87.3449 15.8941C88.2429 14.5223 89.8392 13.4747 91.4605 13.4747C93.5058 13.4747 95.6758 14.647 95.6758 18.6379V28.4404C95.6758 28.7896 95.9502 29.064 96.2994 29.064H99.0182C99.3674 29.064 99.6418 28.7896 99.6418 28.4404V17.8896C99.6418 12.901 96.1498 9.8829 92.1838 9.8829Z" fill="white"/>
<path d="M121.193 10.3818H118.474C118.125 10.3818 117.851 10.6561 117.851 11.0053V12.8012C116.429 11.0552 114.409 9.8829 111.889 9.8829C106.626 9.8829 102.361 14.2978 102.361 19.7104C102.361 25.148 106.626 29.5379 111.889 29.5379C114.409 29.5379 116.429 28.3656 117.851 26.6196V28.4155C117.851 28.7647 118.125 29.039 118.474 29.039H121.193C121.542 29.039 121.817 28.7647 121.817 28.4155V11.0053C121.817 10.6561 121.542 10.3818 121.193 10.3818ZM112.238 25.8962C109.121 25.8962 106.576 23.1276 106.576 19.7353C106.576 16.3182 109.121 13.5745 112.238 13.5745C115.356 13.5745 117.901 16.3431 117.901 19.7353C117.901 23.1276 115.381 25.8962 112.238 25.8962Z" fill="white"/>
<path d="M152.371 9.8829C147.133 10.0326 142.993 14.3477 142.993 19.5857C142.993 25.3974 147.059 29.5628 152.82 29.5628C156.287 29.5628 159.181 28.2409 161.101 25.6967C161.326 25.3974 161.251 24.9734 160.927 24.7988L158.832 23.5017C158.557 23.3271 158.183 23.402 157.984 23.6763C156.836 25.2477 155.115 26.3203 152.795 26.3203C149.703 26.3203 147.158 24.4994 146.61 21.1321H161.351C161.675 21.1321 161.95 20.8827 161.974 20.5585C161.999 20.309 161.999 20.0347 161.999 19.7852C162.049 14.2729 158.183 9.8829 152.371 9.8829ZM146.734 17.9893C147.433 14.8715 150.052 13.1754 152.771 13.1754C155.315 13.1754 157.759 15.1957 158.233 17.9893H146.734Z" fill="white"/>
<path d="M58.8607 9.384C53.2735 9.384 48.7588 13.9236 48.7588 19.4859C48.7588 25.0731 53.2984 29.5877 58.8607 29.5877C64.4479 29.5877 68.9625 25.0481 68.9625 19.4859C68.9625 13.8987 64.4479 9.384 58.8607 9.384ZM58.8607 26.0459C55.4684 26.0459 52.7247 23.1275 52.7247 19.5108C52.7247 15.8941 55.4684 12.9758 58.8607 12.9758C62.2529 12.9758 64.9966 15.8941 64.9966 19.5108C64.9966 23.1275 62.2529 26.0459 58.8607 26.0459Z" fill="white"/>
<path d="M141.422 25.5969C141.272 25.3225 140.923 25.1978 140.624 25.3225C139.576 25.7715 137.281 26.7692 134.263 26.8191C130.397 26.8689 128.826 25.8213 128.826 25.8213L140.698 13.9485C140.898 13.749 141.023 13.4746 141.023 13.2002V10.9803C141.023 10.6311 140.748 10.3568 140.399 10.3568H126.331C125.982 10.3568 125.708 10.6311 125.708 10.9803V13.1254C125.708 13.4746 125.982 13.749 126.331 13.749L136.184 13.5494L125.334 24.3996C125.134 24.5991 125.009 24.8735 125.009 25.1479V27.8417C125.009 28.0662 125.134 28.2907 125.358 28.3905C126.331 28.8893 129.324 30.1863 133.764 30.1863C137.93 30.1863 140.948 28.9392 142.145 28.3655C142.469 28.2159 142.594 27.8168 142.419 27.5175L141.422 25.5969Z" fill="white"/>
</svg>
