<svg xmlns="http://www.w3.org/2000/svg" width="28.482" height="32.856" viewBox="0 0 28.482 32.856"><g transform="translate(-23.5 -18.207)"><path d="M37.741,54.835A14.323,14.323,0,1,1,51.982,40.512,14.282,14.282,0,0,1,37.741,54.835Zm0-1.582a12.741,12.741,0,1,0-12.658-12.74A12.7,12.7,0,0,0,37.741,53.253Z" transform="translate(0 -3.772)"/><path d="M54.322,52.524A.791.791,0,1,1,53.165,53.6L48.647,48.76V43.992a.791.791,0,1,1,1.582,0v4.145Z" transform="translate(-11.884 -11.811)"/><path d="M42.117,20.317a1.055,1.055,0,0,1,0-2.11h7.925a1.055,1.055,0,0,1,0,2.11Z" transform="translate(-8.299)"/><path d="M48.5,20.3a1.055,1.055,0,1,1,2.108.073L50.532,22.7a1.055,1.055,0,0,1-2.108-.073Z" transform="translate(-11.778 -0.506)"/><path d="M49,26.981a.791.791,0,1,1,1.582,0v3.383a.791.791,0,1,1-1.582,0Z" transform="translate(-12.05 -3.42)"/><path d="M49,71.877a.791.791,0,0,1,1.582,0V75.26a.791.791,0,0,1-1.582,0Z" transform="translate(-12.05 -24.989)"/><path d="M72.279,51.845a.791.791,0,0,1,0,1.582H68.916a.791.791,0,0,1,0-1.582Z" transform="translate(-21.088 -15.896)"/><path d="M27.654,51.845a.791.791,0,0,1,0,1.582H24.291a.791.791,0,1,1,0-1.582Z" transform="translate(0 -15.896)"/><path d="M34.877,35.965a.791.791,0,0,1-1.021,1.209L31.281,35A.791.791,0,0,1,32.3,33.79Z" transform="translate(-3.544 -6.834)"/><path d="M65.627,69.171a.791.791,0,1,1-1.021,1.209l-2.576-2.174A.791.791,0,0,1,63.051,67Z" transform="translate(-18.076 -23.541)"/><path d="M3.877,1.4A.791.791,0,0,0,2.857.187L.281,2.361A.791.791,0,0,0,1.3,3.57Z" transform="translate(48.553 30.685) rotate(180)"/><path d="M3.877,1.4A.791.791,0,0,0,2.857.187L.281,2.361A.791.791,0,1,0,1.3,3.57Z" transform="translate(31.28 46.526) rotate(180)"/></g></svg>