<svg xmlns="http://www.w3.org/2000/svg" width="16" height="25" viewBox="0 0 16 25">
    <g fill="none" fill-rule="evenodd">
     <path stroke="#00CAF2" stroke-linecap="round" stroke-linejoin="round" stroke-width="1.328" d="M1.493 19.39h12.94V6.268H1.493zm12.94-16.95c0-.507-.385-.916-.862-.916H2.357c-.476 0-.862.41-.862.915v3.827h12.94V2.44zM1.493 19.39v3.358c0 .506.387.915.863.915H13.57c.477 0 .863-.41.863-.915V19.39H1.493z"></path>
     <path stroke="#00CAF2" stroke-linecap="round" stroke-linejoin="round" stroke-width="1.016" d="M6.43 3.895h3.068"></path>
     <path fill="#FFF" d="M8.086 12.503l-.052-.01c-.82-.147-1.32-.27-1.32-.728 0-.77 1.152-.79 1.28-.79.498.005 1 .077 1.306.554.037.06.118.077.18.042l.293-.168a.127.127 0 0 0 .043-.183c-.474-.686-1.07-.828-1.82-.828-.65 0-1.237.196-1.567.522a1.138 1.138 0 0 0-.34.865c0 .943.974 1.128 1.835 1.29.866.16 1.433.307 1.428.846 0 .75-.95.83-1.356.83-.54 0-1.22-.258-1.477-.752a.135.135 0 0 0-.178-.057l-.32.156a.128.128 0 0 0-.067.074.128.128 0 0 0 .008.1c.405.777 1.315 1.054 2.034 1.054 1.235 0 1.976-.52 1.98-1.398 0-1.066-1.004-1.253-1.89-1.42"></path>
     <path stroke="#00CAF2" stroke-width=".798" d="M8.086 12.503l-.052-.01c-.82-.147-1.32-.27-1.32-.728 0-.77 1.152-.79 1.28-.79.498.005 1 .077 1.306.554.037.06.118.077.18.042l.293-.168a.127.127 0 0 0 .043-.183c-.474-.686-1.07-.828-1.82-.828-.65 0-1.237.196-1.567.522a1.138 1.138 0 0 0-.34.865c0 .943.974 1.128 1.835 1.29.866.16 1.433.307 1.428.846 0 .75-.95.83-1.356.83-.54 0-1.22-.258-1.477-.752a.135.135 0 0 0-.178-.057l-.32.156a.128.128 0 0 0-.067.074.128.128 0 0 0 .008.1c.405.777 1.315 1.054 2.034 1.054 1.235 0 1.976-.52 1.98-1.398 0-1.066-1.004-1.253-1.89-1.42z"></path>
     <path stroke="#00CAF2" stroke-linecap="round" stroke-linejoin="round" stroke-width="1.016" d="M7.963 9.226v1.167"></path>
     <path stroke="#FFF" stroke-linecap="round" stroke-linejoin="round" stroke-width="1.016" d="M7.963 15.32v1.11"></path>
     <path stroke="#00CAF2" stroke-linecap="round" stroke-linejoin="round" stroke-width="1.016" d="M7.963 15.32v1.11"></path>
    </g>
  </svg>
