<svg width="24" height="24" viewBox="0 0 24 24" fill="none" xmlns="http://www.w3.org/2000/svg">
<path d="M12 2.86C13.8077 2.86 15.5748 3.39605 17.0779 4.40037C18.581 5.40468 19.7525 6.83216 20.4443 8.50227C21.136 10.1724 21.317 12.0101 20.9644 13.7831C20.6117 15.5561 19.7412 17.1847 18.463 18.463C17.1847 19.7412 15.5561 20.6117 13.7831 20.9644C12.0101 21.317 10.1724 21.136 8.50228 20.4443C6.83216 19.7525 5.40469 18.581 4.40037 17.0779C3.39606 15.5748 2.86 13.8077 2.86 12C2.86 9.57592 3.82297 7.25113 5.53705 5.53704C7.25113 3.82296 9.57592 2.86 12 2.86ZM12 0.9C9.80463 0.9 7.65856 1.551 5.83317 2.77069C4.00779 3.99037 2.58507 5.72395 1.74494 7.75221C0.904809 9.78047 0.684992 12.0123 1.11329 14.1655C1.54158 16.3187 2.59876 18.2965 4.15112 19.8489C5.70348 21.4012 7.68131 22.4584 9.8345 22.8867C11.9877 23.315 14.2195 23.0952 16.2478 22.2551C18.276 21.4149 20.0096 19.9922 21.2293 18.1668C22.449 16.3414 23.1 14.1954 23.1 12C23.1 9.0561 21.9305 6.23277 19.8489 4.15111C17.7672 2.06946 14.9439 0.9 12 0.9Z" fill="#3A4957" stroke="#3A4957" stroke-width="0.2"/>
<path d="M12.1063 6C9.72143 6 7.93682 7.80083 8.00171 10.137H10.419C10.4028 9.13118 10.9869 8.33621 12.0414 8.33621C12.9175 8.33621 13.534 8.8067 13.534 9.68278C13.534 11.3863 10.7435 11.1105 10.7435 14.0145H13.0797C13.1122 12.6679 16 12.4733 16 9.4232C16 7.47636 14.3127 6 12.1063 6ZM11.9603 17.6811C12.7877 17.6811 13.4367 17.0321 13.4367 16.2209C13.4367 15.4097 12.7877 14.777 11.9603 14.777C11.1167 14.777 10.4839 15.4097 10.4839 16.2209C10.4839 17.0321 11.1167 17.6811 11.9603 17.6811Z" fill="#3A4957"/>
</svg>
