<svg width="13" height="15" viewBox="0 0 13 15" fill="none" xmlns="http://www.w3.org/2000/svg">
<path d="M12.8544 6.06878C12.7312 6.08045 12.608 6.08674 12.4848 6.08763C11.1322 6.08763 9.87039 5.40704 9.12843 4.27661V10.4424C9.12843 12.9591 7.0851 15 4.56331 15C2.04153 15 0 12.96 0 10.4424C0 7.9247 2.04333 5.88471 4.56511 5.88471C4.66044 5.88471 4.75398 5.89369 4.84751 5.89908V8.14468C4.75398 8.1339 4.66134 8.11595 4.56511 8.11595C3.27814 8.11595 2.23579 9.15749 2.23579 10.4415C2.23579 11.7263 3.27904 12.767 4.56511 12.767C5.85209 12.767 6.98887 11.7551 6.98887 10.4702L7.01045 0H9.1626C9.36586 1.92685 10.9217 3.4317 12.8571 3.57267V6.06878" fill="#1A1A1A"/>
</svg>
