<svg width="16" height="18" viewBox="0 0 16 18" fill="none" xmlns="http://www.w3.org/2000/svg">
<path d="M15.9966 7.28253C15.8433 7.29654 15.69 7.30408 15.5367 7.30516C13.8534 7.30516 12.2832 6.48845 11.3598 5.13193V12.5308C11.3598 15.5509 8.81701 18 5.67879 18C2.54057 18 0 15.552 0 12.5308C0 9.50964 2.54281 7.06166 5.68103 7.06166C5.79966 7.06166 5.91606 7.07243 6.03246 7.07889V9.77361C5.91606 9.76068 5.80078 9.73914 5.68103 9.73914C4.07946 9.73914 2.78232 10.989 2.78232 12.5298C2.78232 14.0716 4.08058 15.3204 5.68103 15.3204C7.2826 15.3204 8.69726 14.1061 8.69726 12.5642L8.72412 0H11.4024C11.6553 2.31222 13.5915 4.11804 16 4.2872V7.28253" fill="#081F28"/>
</svg>
