<svg width="15" height="13" viewBox="0 0 15 13" fill="none" xmlns="http://www.w3.org/2000/svg">
<path fill-rule="evenodd" clip-rule="evenodd" d="M10.3336 0.00213421C10.8825 0.0381159 11.4072 0.195057 11.7981 0.574779C12.18 0.946079 12.5482 0.935361 12.9761 0.752391C13.0646 0.714878 13.1553 0.68349 13.243 0.645211C13.5137 0.528079 13.7829 0.408651 14.0967 0.270849C14.0619 0.65057 13.863 0.901676 13.6733 1.14436C13.4858 1.38552 13.2612 1.59681 12.9845 1.89538C13.5062 1.75452 13.944 1.63739 14.4006 1.51413C14.2653 1.91835 14.077 2.13194 13.1138 2.99857C13.0714 3.56509 13.0684 4.12395 12.9807 4.66827C12.7909 5.85337 12.394 6.96957 11.7732 7.99926C11.2454 8.8743 10.5839 9.63298 9.79298 10.2646C8.59683 11.2192 7.23812 11.788 5.71459 11.9634C4.41788 12.1126 3.15217 12.0376 1.90461 11.6311C1.23546 11.4137 0.618488 11.0921 0 10.7683C0.115683 10.6183 0.277488 10.6941 0.413585 10.6986C0.97839 10.7147 1.53412 10.6558 2.08305 10.5226C2.87317 10.3312 3.58466 9.97748 4.26061 9.46608C2.53746 9.18895 1.73902 8.1095 1.60746 7.30795C2.15715 7.39446 2.40288 7.37302 2.71363 7.21072C1.41315 6.9022 0.355366 5.40321 0.554219 4.25946C0.90278 4.37735 1.23471 4.55956 1.63317 4.54808C1.12961 4.00376 0.716024 3.42422 0.580683 2.69464C0.443829 1.9551 0.524732 1.24618 0.94361 0.552577C1.73298 1.48274 2.6229 2.22458 3.67312 2.7689C4.73241 3.31781 5.84237 3.64241 7.05817 3.69294C7.05817 3.49772 7.05363 3.34843 7.05968 3.19915C7.07027 2.92584 7.0491 2.64334 7.10959 2.38152C7.4211 1.04637 8.40176 0.154482 9.7461 0.00366535C9.79146 -0.000928057 10.289 -0.000928057 10.3336 0.00213421Z" fill="#1A1A1A"/>
</svg>
