<svg width="19" height="15" viewBox="0 0 19 15" fill="none" xmlns="http://www.w3.org/2000/svg">
<path fill-rule="evenodd" clip-rule="evenodd" d="M13.634 0.00266016C14.3582 0.0475089 15.0506 0.243126 15.5663 0.716424C16.0701 1.17922 16.5559 1.16587 17.1206 0.937805C17.2373 0.891047 17.357 0.851924 17.4727 0.804213C17.8298 0.658216 18.185 0.509356 18.599 0.337595C18.5531 0.810892 18.2907 1.12388 18.0403 1.42637C17.7929 1.72695 17.4966 1.99032 17.1315 2.36247C17.8199 2.18689 18.3975 2.04089 19 1.88726C18.8214 2.3911 18.573 2.65733 17.3021 3.73751C17.2462 4.44364 17.2423 5.14023 17.1265 5.81869C16.8761 7.29583 16.3524 8.6871 15.5334 9.97054C14.8371 11.0612 13.9642 12.0069 12.9207 12.7941C11.3425 13.984 9.54988 14.693 7.53975 14.9115C5.82889 15.0976 4.15893 15.0041 2.51292 14.4974C1.63005 14.2264 0.816024 13.8256 0 13.422C0.15263 13.235 0.366114 13.3294 0.545679 13.3351C1.29087 13.3552 2.0241 13.2817 2.74835 13.1157C3.79082 12.8771 4.72955 12.4363 5.62139 11.7988C3.34789 11.4534 2.29445 10.1079 2.12087 9.10887C2.84611 9.2167 3.17032 9.18998 3.58033 8.98768C1.86449 8.60313 0.468865 6.73475 0.73123 5.30913C1.19112 5.45608 1.62906 5.68319 2.15478 5.66887C1.49039 4.99042 0.944713 4.26806 0.766145 3.35868C0.585582 2.4369 0.692324 1.55328 1.24499 0.688751C2.28646 1.84814 3.46062 2.77279 4.84627 3.45124C6.24388 4.13543 7.70834 4.54002 9.31245 4.603C9.31245 4.35967 9.30647 4.1736 9.31445 3.98752C9.32842 3.64686 9.30048 3.29475 9.38029 2.9684C9.7913 1.30423 11.0852 0.192552 12.8589 0.00456861C12.9187 -0.00115676 13.5751 -0.00115676 13.634 0.00266016Z" fill="#081F28"/>
</svg>
