<svg width="21" height="15" viewBox="0 0 21 15" fill="none" xmlns="http://www.w3.org/2000/svg">
<path fill-rule="evenodd" clip-rule="evenodd" d="M8.33211 10.2661L8.33104 4.27368L14.0057 7.28019L8.33211 10.2661ZM20.7907 3.23636C20.7907 3.23636 20.5857 1.76617 19.9558 1.1189C19.1572 0.269967 18.2625 0.265631 17.8514 0.215757C14.9132 0 10.5048 0 10.5048 0H10.4952C10.4952 0 6.08785 0 3.14856 0.215757C2.73857 0.265631 1.8428 0.269967 1.04418 1.1189C0.415324 1.76617 0.210331 3.23636 0.210331 3.23636C0.210331 3.23636 0 4.96241 0 6.68739V8.30611C0 10.0311 0.210331 11.7571 0.210331 11.7571C0.210331 11.7571 0.415324 13.2262 1.04418 13.8735C1.8428 14.7235 2.89232 14.6964 3.35996 14.7853C5.04047 14.949 10.5005 15 10.5005 15C10.5005 15 14.9132 14.9924 17.8514 14.7777C18.2625 14.7279 19.1572 14.7235 19.9558 13.8735C20.5857 13.2262 20.7907 11.7571 20.7907 11.7571C20.7907 11.7571 21 10.0311 21 8.30611V6.68739C21 4.96241 20.7907 3.23636 20.7907 3.23636Z" fill="#081F28"/>
</svg>
