<svg width="17" height="12" viewBox="0 0 17 12" fill="none" xmlns="http://www.w3.org/2000/svg">
<path fill-rule="evenodd" clip-rule="evenodd" d="M6.53849 7.93349L6.53765 3.30276L10.9908 5.62608L6.53849 7.93349ZM16.3152 2.50095C16.3152 2.50095 16.1544 1.36484 15.66 0.864649C15.0333 0.208622 14.3312 0.20527 14.0086 0.16673C11.7029 0 8.24349 0 8.24349 0H8.23595C8.23595 0 4.77735 0 2.47078 0.16673C2.14905 0.20527 1.44611 0.208622 0.819405 0.864649C0.325919 1.36484 0.165054 2.50095 0.165054 2.50095C0.165054 2.50095 0 3.83478 0 5.16778V6.41868C0 7.75168 0.165054 9.08551 0.165054 9.08551C0.165054 9.08551 0.325919 10.2208 0.819405 10.721C1.44611 11.3778 2.2697 11.3569 2.63668 11.4256C3.95543 11.5521 8.24014 11.5915 8.24014 11.5915C8.24014 11.5915 11.7029 11.5856 14.0086 11.4197C14.3312 11.3812 15.0333 11.3778 15.66 10.721C16.1544 10.2208 16.3152 9.08551 16.3152 9.08551C16.3152 9.08551 16.4794 7.75168 16.4794 6.41868V5.16778C16.4794 3.83478 16.3152 2.50095 16.3152 2.50095Z" fill="#1A1A1A"/>
</svg>
