<svg width="16" height="16" viewBox="0 0 16 16" fill="none" xmlns="http://www.w3.org/2000/svg">
    <circle cx="8" cy="8" r="8" fill="#FFDD00"/>
    <path d="M7.99776 12.8885C7.25928 12.8885 6.55126 12.721 5.92698 12.4241C5.85846 12.3936 5.78994 12.3936 5.72143 12.4241C5.47019 12.5611 5.23418 12.7134 5.02102 12.8885C4.90682 12.9798 4.92205 13.1473 5.04386 13.2235C5.91937 13.7183 6.9243 14 7.99776 14C9.07121 14 10.0761 13.7183 10.9517 13.2235C11.0735 13.1549 11.0887 12.9798 10.9745 12.8885C10.7537 12.7134 10.5177 12.5611 10.2741 12.4241C10.2132 12.3936 10.1371 12.3936 10.0685 12.4241C9.44426 12.721 8.73623 12.8885 7.99776 12.8885Z"
          fill="#081F28"/>
    <path d="M12.4053 11.2516C11.1644 10.2467 9.59609 9.69093 7.99733 9.69093C6.46709 9.69093 5.01297 10.1782 3.79487 11.0994C3.79487 11.0994 3.53602 11.3049 3.33808 11.48C3.26195 11.5485 3.24672 11.6627 3.31524 11.7465C3.4675 11.9292 3.64261 12.1271 3.8101 12.2946C3.87861 12.3631 3.99281 12.3708 4.06894 12.3099C4.24405 12.1652 4.47244 11.9977 4.47244 11.9977C5.50022 11.2288 6.71832 10.8177 8.00494 10.8177C9.35247 10.8177 10.6619 11.2821 11.7049 12.1271C11.7049 12.1271 11.8191 12.2185 11.9333 12.3099C12.0095 12.3708 12.1237 12.3708 12.1922 12.3022C12.3597 12.1348 12.5348 11.9444 12.687 11.7541C12.7555 11.6704 12.7403 11.5562 12.6642 11.4876C12.5348 11.3658 12.4053 11.2516 12.4053 11.2516Z"
          fill="#081F28"/>
    <path d="M7.01565 2.07781C4.4957 2.4813 2.49344 4.47595 2.08233 6.9959C1.88439 8.20639 2.05188 9.36359 2.49344 10.3761C2.55434 10.5132 2.72183 10.5512 2.82842 10.4599C3.0492 10.2772 3.27759 10.1021 3.5136 9.94219V9.93457C4.8459 9.04384 6.38376 8.57943 7.99774 8.57943C9.61173 8.57943 11.1572 9.05145 12.4819 9.93457V9.94219C12.7179 10.1021 12.9539 10.2772 13.1671 10.4599C13.2737 10.5512 13.4488 10.5132 13.5021 10.3838C13.8218 9.65289 13.9969 8.84589 13.9969 8.00084C13.9969 4.36936 10.7613 1.48398 7.01565 2.07781ZM7.99774 7.46791C6.27717 7.46791 4.62512 7.93232 3.18623 8.82306C3.14056 8.55659 3.11772 8.27491 3.11772 7.99322C3.11772 5.29817 5.3103 3.10558 8.00536 3.10558C10.7004 3.10558 12.893 5.29817 12.893 7.99322C12.893 8.27491 12.8702 8.54898 12.8245 8.82306C11.3704 7.93993 9.71832 7.46791 7.99774 7.46791Z"
          fill="#081F28"/>
</svg>
