<svg width="32" height="24" viewBox="0 0 32 24" fill="none" xmlns="http://www.w3.org/2000/svg">
    <path d="M2 2H5.3647L6.67234 5.16588L8.53059 9.8L10.8935 15.6347L27.2965 14.4876L30.3323 5.15059H14"
          stroke="#FFFCF8" stroke-width="2.5" stroke-miterlimit="10" stroke-linecap="round" stroke-linejoin="round"/>
    <path d="M23.6548 23.8658C24.8974 23.8658 25.9048 22.8585 25.9048 21.6158C25.9048 20.3732 24.8974 19.3658 23.6548 19.3658C22.4121 19.3658 21.4048 20.3732 21.4048 21.6158C21.4048 22.8585 22.4121 23.8658 23.6548 23.8658Z"
          fill="#FFFCF8"/>
    <path d="M13.4917 23.8658C14.7343 23.8658 15.7417 22.8585 15.7417 21.6158C15.7417 20.3732 14.7343 19.3658 13.4917 19.3658C12.2491 19.3658 11.2417 20.3732 11.2417 21.6158C11.2417 22.8585 12.2491 23.8658 13.4917 23.8658Z"
          fill="#FFFCF8"/>
</svg>
